<svg xmlns="http://www.w3.org/2000/svg" viewBox="0 0 1500 2000" role="img" aria-label="MacParakeet Pop — twelve parakeets">
  <title>MacParakeet · Twelve Parakeets</title>
  <desc>Twelve-tile Pop tribute. 3 columns × 4 rows. Each tile pairs a palette ground with a parakeet silhouette in a contrasting palette color. Edit the rect fill (background) and use color (foreground) to recompose.</desc>

  <defs>
    <symbol id="bird" viewBox="0 0 1024 1024" preserveAspectRatio="xMidYMid meet">
      <path fill="currentColor" fill-rule="evenodd" d="M 538.0 252.9 c -41.3 9.2 -71.4 38.1 -87.3 83.7 -10.9 31.2 -16.2 73.4 -20.7 163.4 -1.1 22.3 -2.5 46.1 -3.0 53.0 -1.4 17.2 -6.1 55.3 -6.9 56.2 -0.3 0.4 -7.1 1.6 -15.1 2.8 -58.2 8.5 -93.2 26.8 -108.2 56.4 -8.4 16.6 -5.9 31.8 7.8 46.6 10.5 11.3 30.3 18.4 44.9 15.9 9.8 -1.6 21.4 -6.0 30.0 -11.4 l 7.3 -4.5 11.5 -0.0 11.5 -0.0 6.3 -4.2 c 13.5 -9.0 31.1 -28.1 43.1 -46.8 11.3 -17.8 23.8 -43.7 23.8 -49.6 0.0 -3.8 -1.0 -3.4 16.5 -5.5 49.7 -5.7 84.6 -20.6 111.1 -47.3 35.7 -36.0 50.5 -89.1 36.8 -132.0 -2.9 -9.1 -6.0 -15.6 -7.4 -15.6 -0.6 -0.0 -1.0 -4.4 -1.0 -10.9 0.0 -10.3 0.2 -11.2 3.5 -18.5 2.0 -4.2 4.6 -11.7 5.8 -16.6 l 2.2 -9.0 12.5 -0.0 c 11.7 -0.0 12.8 0.2 16.2 2.5 l 3.7 2.5 0.6 -3.3 c 1.3 -7.0 -6.8 -21.4 -15.2 -26.8 -5.1 -3.4 -13.6 -6.9 -16.5 -6.9 -2.1 -0.0 -2.6 -0.8 -3.7 -5.3 -7.3 -28.9 -31.3 -54.0 -62.1 -64.8 -15.9 -5.6 -34.0 -7.1 -48.0 -4.0 z m 53.9 47.9 c 10.7 8.0 7.0 25.4 -6.0 28.1 -9.9 2.1 -19.1 -5.3 -19.1 -15.4 0.0 -12.9 14.8 -20.4 25.1 -12.7 z"/>
    </symbol>
  </defs>

  <!-- Row 1: Coral · Aqua · Marigold -->
  <g>
    <rect x="0"    y="0" width="500" height="500" fill="#E86B3B"/>
    <use href="#bird" x="0"    y="0" width="500" height="500" color="#F8F4EC"/>
  </g>
  <g>
    <rect x="500"  y="0" width="500" height="500" fill="#3FC5C2"/>
    <use href="#bird" x="500"  y="0" width="500" height="500" color="#0E0F12"/>
  </g>
  <g>
    <rect x="1000" y="0" width="500" height="500" fill="#F4B83A"/>
    <use href="#bird" x="1000" y="0" width="500" height="500" color="#0E0F12"/>
  </g>

  <!-- Row 2: Magenta · Cobalt · Forest -->
  <g>
    <rect x="0"    y="500" width="500" height="500" fill="#E03B92"/>
    <use href="#bird" x="0"    y="500" width="500" height="500" color="#F1E04E"/>
  </g>
  <g>
    <rect x="500"  y="500" width="500" height="500" fill="#2A52BE"/>
    <use href="#bird" x="500"  y="500" width="500" height="500" color="#F8F4EC"/>
  </g>
  <g>
    <rect x="1000" y="500" width="500" height="500" fill="#2F7A4F"/>
    <use href="#bird" x="1000" y="500" width="500" height="500" color="#F1E04E"/>
  </g>

  <!-- Row 3: Lemon · Lavender · Brick -->
  <g>
    <rect x="0"    y="1000" width="500" height="500" fill="#F1E04E"/>
    <use href="#bird" x="0"    y="1000" width="500" height="500" color="#0E0F12"/>
  </g>
  <g>
    <rect x="500"  y="1000" width="500" height="500" fill="#A684E8"/>
    <use href="#bird" x="500"  y="1000" width="500" height="500" color="#F4B83A"/>
  </g>
  <g>
    <rect x="1000" y="1000" width="500" height="500" fill="#B53D2C"/>
    <use href="#bird" x="1000" y="1000" width="500" height="500" color="#F8F4EC"/>
  </g>

  <!-- Row 4: Ink · Lime · Paper -->
  <g>
    <rect x="0"    y="1500" width="500" height="500" fill="#0E0F12"/>
    <use href="#bird" x="0"    y="1500" width="500" height="500" color="#F4B83A"/>
  </g>
  <g>
    <rect x="500"  y="1500" width="500" height="500" fill="#A6D74E"/>
    <use href="#bird" x="500"  y="1500" width="500" height="500" color="#E03B92"/>
  </g>
  <g>
    <rect x="1000" y="1500" width="500" height="500" fill="#F8F4EC"/>
    <use href="#bird" x="1000" y="1500" width="500" height="500" color="#0E0F12"/>
  </g>
</svg>
